<mxfile host="app.diagrams.net" modified="2023-03-13T17:46:15.276Z" agent="5.0 (Windows NT 10.0; Win64; x64) AppleWebKit/537.36 (KHTML, like Gecko) Chrome/108.0.0.0 YaBrowser/23.1.4.778 Yowser/2.5 Safari/537.36" etag="N_CNcNf3mLNjYRWlDAy5" version="21.0.6" type="github">
  <diagram name="Страница 1" id="rFQLMLjx7CzAwmutfJBD">
    <mxGraphModel dx="832" dy="455" grid="0" gridSize="10" guides="1" tooltips="1" connect="1" arrows="1" fold="1" page="1" pageScale="1" pageWidth="827" pageHeight="1169" math="0" shadow="0">
      <root>
        <mxCell id="0" />
        <mxCell id="1" parent="0" />
        <mxCell id="3ggWQbE9oQkZ8MS_adoN-2" style="edgeStyle=orthogonalEdgeStyle;rounded=0;orthogonalLoop=1;jettySize=auto;html=1;exitX=1;exitY=0.5;exitDx=0;exitDy=0;" edge="1" parent="1" source="3ggWQbE9oQkZ8MS_adoN-1">
          <mxGeometry relative="1" as="geometry">
            <mxPoint x="496" y="123" as="targetPoint" />
          </mxGeometry>
        </mxCell>
        <mxCell id="3ggWQbE9oQkZ8MS_adoN-3" value="belongs to" style="edgeLabel;html=1;align=center;verticalAlign=middle;resizable=0;points=[];" vertex="1" connectable="0" parent="3ggWQbE9oQkZ8MS_adoN-2">
          <mxGeometry x="0.1515" y="-4" relative="1" as="geometry">
            <mxPoint x="-13" y="-4" as="offset" />
          </mxGeometry>
        </mxCell>
        <mxCell id="3ggWQbE9oQkZ8MS_adoN-1" value="&lt;font size=&quot;1&quot; data-font-src=&quot;https://fonts.googleapis.com/css?family=montserrat&quot; face=&quot;montserrat&quot;&gt;&lt;b style=&quot;font-size: 16px;&quot;&gt;Transportation problem&lt;/b&gt;&lt;/font&gt;" style="rounded=0;whiteSpace=wrap;html=1;fillColor=#d5e8d4;strokeColor=#82b366;" vertex="1" parent="1">
          <mxGeometry x="244" y="93" width="120" height="60" as="geometry" />
        </mxCell>
        <mxCell id="3ggWQbE9oQkZ8MS_adoN-4" value="&lt;font face=&quot;montserrat&quot;&gt;&lt;span style=&quot;font-size: 16px;&quot;&gt;&lt;b&gt;Optimization problems&lt;/b&gt;&lt;/span&gt;&lt;/font&gt;" style="rounded=0;whiteSpace=wrap;html=1;fillColor=#d5e8d4;strokeColor=#82b366;" vertex="1" parent="1">
          <mxGeometry x="495" y="93" width="120" height="60" as="geometry" />
        </mxCell>
        <mxCell id="3ggWQbE9oQkZ8MS_adoN-6" value="&lt;font face=&quot;montserrat&quot;&gt;&lt;span style=&quot;font-size: 16px;&quot;&gt;&lt;b&gt;Methods of solving&lt;/b&gt;&lt;/span&gt;&lt;/font&gt;" style="rounded=0;whiteSpace=wrap;html=1;fillColor=#d5e8d4;strokeColor=#82b366;" vertex="1" parent="1">
          <mxGeometry x="495" y="196" width="120" height="60" as="geometry" />
        </mxCell>
      </root>
    </mxGraphModel>
  </diagram>
</mxfile>
